<?xml version="1.0" standalone="no"?>
<!DOCTYPE svg PUBLIC "-//W3C//DTD SVG 20010904//EN"
 "http://www.w3.org/TR/2001/REC-SVG-20010904/DTD/svg10.dtd">
<svg version="1.0" xmlns="http://www.w3.org/2000/svg"
 width="1024.000000pt" height="1024.000000pt" viewBox="0 0 1024.000000 1024.000000"
 preserveAspectRatio="xMidYMid meet">

<g transform="translate(0.000000,1024.000000) scale(0.100000,-0.100000)"
fill="#000000" stroke="none">
<path d="M3392 8420 c-16 -27 -15 -37 7 -59 17 -17 21 -18 40 -5 35 25 22 84
-19 84 -8 0 -21 -9 -28 -20z"/>
<path d="M2535 8360 c-4 -6 -15 -8 -24 -5 -30 9 -45 -19 -29 -52 20 -42 67
-44 91 -4 14 24 15 35 7 51 -12 22 -35 27 -45 10z"/>
<path d="M2821 8145 c-39 -22 -44 -40 -20 -79 17 -30 27 -36 55 -36 47 0 72
36 53 79 -10 23 -50 56 -62 50 -1 -1 -13 -7 -26 -14z"/>
<path d="M6396 8072 c-3 -5 -8 -27 -11 -48 -11 -89 -34 -214 -40 -224 -12 -20
-70 -36 -113 -32 -64 6 -94 -4 -90 -31 2 -17 13 -24 53 -34 28 -6 66 -12 86
-12 53 -1 66 -23 72 -120 5 -82 22 -122 45 -107 5 3 13 34 16 68 4 35 16 82
26 105 15 34 25 44 57 52 21 6 45 11 54 11 30 0 89 30 89 45 0 17 -3 18 -90
15 -57 -1 -68 1 -88 23 -18 19 -23 38 -27 101 -8 152 -21 216 -39 188z m7
-252 c-7 -27 19 -64 56 -80 40 -16 39 -28 -1 -32 -26 -2 -36 -10 -48 -35 -8
-18 -17 -33 -20 -33 -3 0 -10 15 -15 33 -8 27 -18 34 -57 47 -50 16 -60 25
-30 27 60 4 102 32 102 70 0 12 4 23 9 23 5 0 7 -9 4 -20z m-158 -80 c3 -5 -3
-10 -14 -10 -12 0 -21 5 -21 10 0 6 6 10 14 10 8 0 18 -4 21 -10z"/>
<path d="M3756 8045 c-17 -16 -26 -32 -22 -41 3 -9 6 -22 6 -30 0 -24 27 -27
69 -8 47 21 56 36 38 72 -17 37 -55 40 -91 7z"/>
<path d="M3255 7940 c-20 -39 -19 -47 10 -76 24 -24 26 -24 55 -9 29 15 35 28
30 70 -3 31 -20 45 -51 45 -21 0 -32 -7 -44 -30z"/>
<path d="M2940 7900 c-26 -26 -25 -34 4 -53 21 -14 26 -14 45 -1 26 19 27 36
3 57 -24 22 -28 21 -52 -3z"/>
<path d="M1954 7796 c-41 -18 -51 -46 -25 -68 12 -9 21 -24 21 -33 0 -14 6
-16 28 -11 34 8 40 8 73 1 32 -8 50 22 24 41 -8 6 -13 18 -10 26 4 10 -6 23
-30 37 -42 24 -41 24 -81 7z"/>
<path d="M3519 7756 c-3 -3 -31 -7 -62 -8 -31 -1 -57 -5 -57 -8 0 -3 -17 -4
-39 -2 -21 2 -42 -1 -45 -7 -4 -6 -2 -11 3 -11 6 0 11 -4 11 -9 0 -13 -30 -7
-39 8 -11 17 -241 -5 -257 -25 -15 -19 -28 -18 -20 1 5 13 -19 15 -195 12
-111 -2 -204 -8 -207 -13 -4 -5 -29 -10 -55 -11 -27 -1 -56 -5 -65 -9 -9 -4
-28 -9 -42 -10 -14 -2 -26 -8 -28 -13 -2 -5 -10 -7 -17 -5 -19 8 -141 -33
-161 -53 -22 -23 -14 -76 14 -88 32 -14 28 -19 -25 -33 -114 -31 -143 -60
-115 -114 22 -46 56 -63 98 -50 27 8 34 7 34 -4 0 -8 -5 -14 -11 -14 -6 0 -1
-13 10 -29 16 -22 31 -30 68 -35 95 -13 105 -17 92 -32 -27 -33 11 -82 71 -91
120 -18 228 -13 520 28 106 14 206 21 315 21 112 -1 162 3 167 11 5 8 8 6 8
-7 0 -10 5 -16 13 -13 6 2 50 -1 97 -8 47 -7 112 -16 145 -19 33 -4 77 -12 98
-17 21 -6 50 -12 65 -14 15 -2 50 -8 77 -14 28 -6 64 -13 80 -15 17 -2 64 -9
105 -16 41 -6 90 -13 108 -16 38 -6 38 -7 12 -42 -56 -76 -89 -278 -60 -368
13 -40 41 -74 60 -74 5 0 10 -4 10 -9 0 -5 -10 -7 -21 -4 -20 5 -20 4 -9 -18
19 -35 111 -129 126 -129 7 0 17 -6 21 -12 12 -20 122 -69 167 -76 63 -10 206
-6 218 6 6 6 16 8 22 6 11 -4 70 21 148 62 46 25 158 155 188 219 85 182 18
371 -153 434 -92 33 -133 40 -293 45 -256 9 -512 35 -651 66 -25 6 -58 13 -72
15 -35 6 -119 22 -156 30 -98 20 -202 32 -340 40 -60 3 -116 8 -124 11 -7 2
-20 -1 -27 -7 -8 -7 -14 -7 -14 -2 0 6 -17 9 -37 8 -21 -1 -87 -6 -148 -10
-60 -4 -132 -11 -160 -16 -27 -5 -77 -10 -110 -12 -33 -2 -94 -9 -135 -16
-129 -21 -260 -11 -260 19 0 3 61 15 136 27 139 22 170 36 136 61 -16 12 -46
12 -192 -4 -30 -3 -92 -1 -138 4 -78 9 -101 16 -91 26 4 4 163 25 324 42 60 7
85 25 65 48 -16 20 -49 20 -186 1 -60 -9 -146 -18 -191 -20 -44 -2 -85 -5 -90
-6 -29 -5 -63 3 -63 15 0 9 24 19 68 29 148 35 310 67 370 75 72 10 92 23 72
47 -11 13 -28 15 -89 11 -42 -2 -88 -5 -103 -5 -18 -1 -28 -6 -28 -16 0 -8 -4
-15 -10 -15 -5 0 -10 7 -10 15 0 12 -14 15 -64 15 -60 0 -89 11 -67 24 9 6
122 33 171 42 145 25 232 34 350 35 41 0 80 5 87 11 9 8 13 7 13 -2 0 -9 11
-11 40 -6 21 3 92 9 156 12 65 3 122 8 128 12 6 4 18 7 26 7 8 1 51 4 95 9
174 17 531 8 735 -18 83 -11 122 -14 285 -21 83 -3 186 -8 230 -10 122 -5 220
-15 304 -29 51 -9 80 -10 89 -4 8 7 12 7 12 1 0 -6 37 -20 83 -33 142 -39 334
-120 437 -185 22 -14 42 -25 46 -25 7 0 418 -274 494 -330 30 -22 66 -48 80
-57 14 -10 56 -45 93 -78 38 -33 74 -58 80 -57 7 2 9 0 5 -4 -4 -3 21 -37 55
-74 83 -90 205 -267 299 -435 43 -78 234 -465 263 -535 10 -25 27 -57 37 -71
9 -14 15 -28 13 -31 -3 -3 4 -31 15 -64 54 -156 69 -206 91 -299 13 -55 24
-107 25 -116 2 -26 45 -211 55 -239 5 -14 16 -54 24 -90 9 -36 20 -78 25 -95
5 -16 18 -62 28 -100 11 -39 24 -80 30 -92 6 -11 9 -22 7 -25 -3 -3 6 -36 21
-74 14 -38 34 -100 45 -138 11 -38 24 -77 30 -88 9 -17 61 -175 79 -243 5 -16
20 -73 35 -125 51 -180 102 -406 146 -640 34 -181 41 -200 68 -200 30 0 33 27
12 134 -47 242 -64 323 -72 361 -5 22 -13 60 -18 85 -5 25 -19 81 -31 125 -12
44 -30 110 -40 147 -24 90 -75 252 -117 373 -19 55 -39 118 -43 141 -5 22 -18
65 -29 95 -12 30 -21 62 -21 72 0 9 -4 25 -9 35 -23 42 -89 283 -165 597 -81
331 -127 480 -183 588 -8 15 -11 27 -8 27 3 0 -1 10 -9 22 -9 12 -16 30 -16
40 0 10 -4 18 -9 18 -5 0 -12 11 -15 25 -4 14 -11 25 -16 25 -6 0 -10 10 -10
23 0 12 -7 32 -15 44 -8 11 -39 67 -68 124 -84 162 -122 231 -163 295 -22 32
-46 73 -54 89 -27 55 -72 115 -86 115 -7 0 -11 6 -8 14 5 12 -50 78 -178 214
-57 60 -226 190 -320 247 -9 5 -65 45 -125 88 -162 117 -297 204 -311 199 -7
-2 -12 2 -12 9 0 7 -3 9 -7 6 -3 -4 -17 3 -30 15 -13 12 -23 16 -23 10 0 -7
-5 -12 -11 -12 -6 0 -9 6 -6 13 6 18 -64 51 -75 35 -6 -10 -12 -9 -22 5 -8 10
-18 17 -22 16 -5 -1 -16 -1 -24 1 -11 1 -9 4 5 10 19 7 18 9 -8 19 -16 6 -33
9 -38 5 -13 -8 -50 6 -44 16 6 10 -43 26 -52 17 -3 -3 -11 0 -18 6 -27 28
-297 82 -460 92 -44 3 -97 7 -117 10 -28 2 -40 -1 -48 -13 -9 -16 -9 -16 -10
0 0 18 -29 20 -262 22 -43 1 -78 4 -78 7 0 6 -147 18 -300 25 -36 2 -65 4 -65
5 0 1 -11 3 -25 4 -14 1 -58 6 -99 10 -55 6 -72 5 -67 -4 4 -6 2 -11 -3 -11
-6 0 -11 4 -11 9 0 9 -172 16 -181 7z m431 -46 c0 -5 -4 -10 -10 -10 -5 0 -10
5 -10 10 0 6 5 10 10 10 6 0 10 -4 10 -10z m154 -21 c-3 -5 -10 -7 -15 -3 -5
3 -7 10 -3 15 3 5 10 7 15 3 5 -3 7 -10 3 -15z m-914 -1 c0 -11 -12 -10 -30 2
-12 7 -10 9 8 7 12 0 22 -5 22 -9z m-417 -13 c-3 -9 -8 -14 -10 -11 -3 3 -2 9
2 15 9 16 15 13 8 -4z m2222 -35 c3 -5 -1 -10 -9 -10 -9 0 -16 5 -16 10 0 6 4
10 9 10 6 0 13 -4 16 -10z m225 -60 c0 -5 -7 -10 -15 -10 -8 0 -15 5 -15 10 0
6 7 10 15 10 8 0 15 -4 15 -10z m-2930 -234 c0 -3 -4 -8 -10 -11 -5 -3 -10 -1
-10 4 0 6 5 11 10 11 6 0 10 -2 10 -4z m3510 -56 c0 -5 -2 -10 -4 -10 -3 0 -8
5 -11 10 -3 6 -1 10 4 10 6 0 11 -4 11 -10z m-2620 -100 c0 -5 -4 -10 -10 -10
-5 0 -10 5 -10 10 0 6 5 10 10 10 6 0 10 -4 10 -10z m660 -40 c0 -5 -5 -10
-11 -10 -5 0 -7 5 -4 10 3 6 8 10 11 10 2 0 4 -4 4 -10z m710 -100 c0 -5 -5
-10 -11 -10 -5 0 -7 5 -4 10 3 6 8 10 11 10 2 0 4 -4 4 -10z m200 -10 c0 -5
-5 -10 -11 -10 -5 0 -7 5 -4 10 3 6 8 10 11 10 2 0 4 -4 4 -10z m-188 -26 c73
-4 135 -8 137 -10 2 -2 5 -66 5 -141 1 -116 3 -138 16 -138 19 0 28 58 29 183
l1 93 53 -8 c28 -4 69 -8 89 -8 20 0 34 -2 32 -4 -2 -2 19 -12 46 -22 105 -37
152 -101 152 -209 1 -56 -5 -80 -29 -132 -35 -74 -80 -132 -129 -167 -23 -16
-34 -33 -35 -50 -1 -18 -3 -21 -6 -8 -3 13 -10 16 -21 12 -68 -28 -135 -48
-179 -52 -41 -5 -50 -9 -45 -21 3 -10 -3 -7 -16 6 -12 12 -33 22 -47 22 -14 0
-33 4 -43 8 -9 5 -44 22 -77 38 -104 50 -169 131 -191 235 -12 57 -15 184 -4
184 1 0 3 11 6 24 12 64 93 189 114 176 5 -3 68 -8 142 -11z m-252 -94 c0 -5
-5 -10 -11 -10 -5 0 -7 5 -4 10 3 6 8 10 11 10 2 0 4 -4 4 -10z m35 -430 c3
-5 -1 -10 -10 -10 -9 0 -13 5 -10 10 3 6 8 10 10 10 2 0 7 -4 10 -10z m2353
-59 c3 -8 -1 -12 -9 -9 -7 2 -15 10 -17 17 -3 8 1 12 9 9 7 -2 15 -10 17 -17z
m-1894 -96 c-4 -8 -11 -15 -16 -15 -6 0 -5 6 2 15 7 8 14 15 16 15 2 0 1 -7
-2 -15z m2036 -165 c0 -5 -4 -10 -10 -10 -5 0 -10 5 -10 10 0 6 5 10 10 10 6
0 10 -4 10 -10z m60 -84 c0 -3 -4 -8 -10 -11 -5 -3 -10 -1 -10 4 0 6 5 11 10
11 6 0 10 -2 10 -4z m100 -186 c0 -5 -8 -10 -17 -10 -15 0 -16 2 -3 10 19 12
20 12 20 0z"/>
<path d="M4384 6732 c-37 -24 -31 -92 8 -92 15 0 18 8 18 44 0 46 -8 60 -26
48z"/>
<path d="M4462 6731 c-12 -7 -15 -84 -4 -104 8 -16 42 26 42 53 0 34 -21 62
-38 51z"/>
<path d="M4810 6705 c-15 -18 -10 -45 12 -59 29 -18 44 6 28 43 -14 35 -22 38
-40 16z"/>
<path d="M4962 6668 c2 -40 7 -54 20 -56 24 -5 34 40 18 78 -21 51 -42 38 -38
-22z"/>
<path d="M4697 6614 c-4 -4 -7 -23 -7 -43 0 -19 -7 -63 -16 -98 -9 -35 -13
-71 -10 -80 6 -15 8 -15 23 -1 21 21 51 154 44 192 -7 29 -21 42 -34 30z"/>
<path d="M3236 7460 c-21 -26 -23 -34 -15 -59 20 -56 99 -64 138 -14 20 24 20
24 168 19 138 -5 257 -11 430 -21 40 -2 77 -6 82 -9 5 -3 39 -5 77 -4 38 0 88
-2 110 -6 27 -5 44 -3 49 3 9 15 -9 20 -90 25 -38 2 -77 7 -85 10 -8 3 -55 5
-103 4 -48 -2 -88 1 -90 5 -1 4 -121 11 -267 14 -161 3 -266 9 -269 16 -10 26
-44 47 -75 47 -26 0 -41 -7 -60 -30z"/>
<path d="M4482 7358 c5 -15 68 -24 68 -10 0 10 -32 22 -58 22 -8 0 -12 -6 -10
-12z"/>
<path d="M4620 7341 c0 -6 1 -11 3 -11 1 0 56 -7 121 -15 66 -8 122 -13 124
-10 3 3 10 1 16 -5 7 -5 43 -14 81 -19 39 -6 105 -21 148 -32 75 -21 77 -22
77 -54 0 -39 31 -74 68 -77 45 -2 65 2 82 17 14 13 26 9 100 -33 83 -47 215
-154 278 -226 32 -37 33 -37 28 -10 -10 52 -200 216 -323 278 -47 23 -53 30
-53 57 0 44 -16 67 -55 78 -38 10 -72 5 -95 -14 -14 -12 -72 -2 -260 45 -37 9
-158 25 -272 36 -47 4 -68 3 -68 -5z"/>
<path d="M7727 6980 c-44 -8 -51 -14 -44 -34 5 -11 23 -15 78 -15 104 1 107
-13 14 -56 -42 -19 -85 -35 -94 -35 -9 0 -41 -7 -71 -15 -87 -24 -180 -37
-335 -50 -44 -3 -104 -8 -132 -11 -115 -12 -213 -10 -213 3 0 7 9 13 19 13 11
0 23 5 26 10 4 6 10 8 15 5 12 -8 80 21 80 34 0 26 -37 28 -112 6 -97 -28
-128 -48 -128 -81 0 -46 47 -56 242 -50 349 12 715 70 691 110 -4 6 1 5 10 -3
15 -12 20 -12 35 1 9 8 34 22 55 32 47 21 71 57 63 92 -12 46 -95 65 -199 44z
m-497 -234 c0 -2 -7 -7 -16 -10 -8 -3 -12 -2 -9 4 6 10 25 14 25 6z m-190 -22
c0 -8 -5 -12 -10 -9 -6 4 -8 11 -5 16 9 14 15 11 15 -7z m-80 2 c0 -3 -4 -8
-10 -11 -5 -3 -10 -1 -10 4 0 6 5 11 10 11 6 0 10 -2 10 -4z"/>
<path d="M2980 6908 c-26 -28 -25 -42 2 -78 27 -38 66 -40 98 -5 21 22 22 27
10 55 -22 53 -74 66 -110 28z"/>
<path d="M5766 6831 c-8 -13 55 -121 71 -121 14 0 8 20 -16 60 -30 49 -49 71
-55 61z"/>
<path d="M5886 6678 c-4 -24 -14 -54 -22 -67 -14 -20 -14 -25 -2 -38 20 -19
72 -25 92 -10 22 16 35 76 25 105 -7 18 -61 52 -82 52 -3 0 -7 -19 -11 -42z
m49 -38 c3 -5 1 -10 -4 -10 -6 0 -11 5 -11 10 0 6 2 10 4 10 3 0 8 -4 11 -10z"/>
<path d="M3250 6695 c-10 -12 -8 -22 15 -55 30 -44 32 -44 69 -30 19 7 26 17
26 37 0 40 -10 49 -56 56 -31 5 -45 3 -54 -8z"/>
<path d="M2407 6673 c-4 -3 -7 -16 -7 -28 0 -13 -7 -28 -15 -35 -21 -17 -19
-36 7 -54 14 -10 27 -12 37 -6 9 5 23 4 33 -1 32 -17 60 7 56 49 -2 30 -8 38
-26 40 -12 2 -27 12 -32 23 -10 19 -40 26 -53 12z"/>
<path d="M5817 6569 c7 -7 15 -10 18 -7 3 3 -2 9 -12 12 -14 6 -15 5 -6 -5z"/>
<path d="M2750 6555 c0 -9 -7 -18 -15 -21 -21 -8 -19 -31 5 -64 35 -49 104
-48 112 2 5 30 -12 68 -29 68 -7 0 -16 7 -19 15 -8 20 -54 20 -54 0z"/>
<path d="M6072 6513 c-35 -18 -51 -32 -47 -41 3 -9 0 -12 -9 -9 -14 6 -60 -38
-98 -91 l-16 -24 -42 45 c-54 60 -144 106 -212 111 -215 13 -286 -186 -142
-396 55 -80 184 -200 289 -270 39 -26 86 -63 104 -82 19 -20 41 -36 49 -36 14
0 112 92 112 106 0 5 18 22 39 38 21 15 44 38 51 51 7 13 36 48 64 78 64 67
133 200 144 277 4 30 4 80 0 110 -21 138 -156 200 -286 133z m48 -23 c0 -5 -4
-10 -10 -10 -5 0 -10 5 -10 10 0 6 5 10 10 10 6 0 10 -4 10 -10z m-70 -54 c0
-3 -4 -8 -10 -11 -5 -3 -10 -1 -10 4 0 6 5 11 10 11 6 0 10 -2 10 -4z m-390
-10 c0 -3 -4 -8 -10 -11 -5 -3 -10 -1 -10 4 0 6 5 11 10 11 6 0 10 -2 10 -4z
m575 -66 c-3 -5 -11 -10 -16 -10 -6 0 -7 5 -4 10 3 6 11 10 16 10 6 0 7 -4 4
-10z m-31 -84 c-6 -15 -24 -23 -24 -11 0 8 24 34 28 30 1 -1 0 -10 -4 -19z
m-134 -42 c0 -8 -5 -12 -10 -9 -6 4 -8 11 -5 16 9 14 15 11 15 -7z m122 -16
c-9 -9 -12 -7 -12 12 0 19 3 21 12 12 9 -9 9 -15 0 -24z m-212 -58 c0 -5 -5
-10 -11 -10 -5 0 -7 5 -4 10 3 6 8 10 11 10 2 0 4 -4 4 -10z m190 0 c0 -5 -4
-10 -10 -10 -5 0 -10 -10 -11 -22 0 -23 0 -23 -10 1 -7 18 -6 27 3 33 18 11
28 10 28 -2z m-645 -40 c3 -5 1 -10 -4 -10 -6 0 -11 5 -11 10 0 6 2 10 4 10 3
0 8 -4 11 -10z m295 -34 c0 -3 -4 -8 -10 -11 -5 -3 -10 -1 -10 4 0 6 5 11 10
11 6 0 10 -2 10 -4z m290 -6 c0 -5 -5 -10 -11 -10 -5 0 -7 5 -4 10 3 6 8 10
11 10 2 0 4 -4 4 -10z m-290 -35 c7 -9 8 -15 2 -15 -5 0 -12 7 -16 15 -3 8 -4
15 -2 15 2 0 9 -7 16 -15z m270 -25 c0 -5 -2 -10 -4 -10 -3 0 -8 5 -11 10 -3
6 -1 10 4 10 6 0 11 -4 11 -10z m90 -44 c0 -3 -4 -8 -10 -11 -5 -3 -10 -1 -10
4 0 6 5 11 10 11 6 0 10 -2 10 -4z"/>
<path d="M5123 6378 c1 -71 -2 -89 -22 -123 -35 -60 -67 -101 -161 -205 -93
-104 -121 -147 -103 -158 8 -5 9 -13 3 -22 -8 -13 -10 -12 -10 3 0 11 -5 15
-11 11 -19 -11 -71 -136 -72 -170 -1 -18 -4 -31 -8 -29 -16 11 -63 -234 -79
-419 -10 -107 -10 -130 1 -137 10 -6 11 -9 2 -9 -8 0 -13 -14 -13 -35 0 -19 5
-35 10 -35 6 0 10 -5 10 -11 0 -5 -4 -8 -9 -5 -14 9 -20 -33 -26 -184 -3 -74
-10 -162 -15 -195 -4 -33 -9 -67 -9 -75 -3 -54 -75 -447 -91 -495 -5 -16 -14
-57 -20 -90 -5 -33 -14 -78 -19 -100 -25 -110 -34 -152 -35 -170 -2 -11 -5
-27 -9 -35 -3 -8 -8 -33 -12 -55 -7 -48 -39 -198 -65 -311 -26 -107 -37 -249
-21 -258 7 -4 18 -3 25 4 14 11 40 108 51 190 3 25 12 72 19 105 39 174 47
215 41 225 -4 6 -2 17 4 24 6 7 24 76 40 152 17 76 37 166 45 199 42 169 56
231 56 254 0 14 4 33 10 41 5 9 5 19 -2 27 -7 9 -7 13 0 13 6 0 14 15 18 33
41 174 74 476 73 672 0 33 2 83 5 110 2 28 8 93 12 145 8 107 8 110 18 165 58
324 94 409 256 595 129 148 141 165 162 233 15 49 19 82 14 115 -7 51 -29 92
-51 92 -11 0 -14 -17 -12 -82z m22 -118 c3 -5 1 -10 -4 -10 -6 0 -11 5 -11 10
0 6 2 10 4 10 3 0 8 -4 11 -10z m-25 -64 c0 -3 -4 -8 -10 -11 -5 -3 -10 -1
-10 4 0 6 5 11 10 11 6 0 10 -2 10 -4z m-165 -176 c3 -5 1 -10 -4 -10 -6 0
-11 5 -11 10 0 6 2 10 4 10 3 0 8 -4 11 -10z m-268 -862 c-3 -8 -6 -5 -6 6 -1
11 2 17 5 13 3 -3 4 -12 1 -19z m-285 -1870 c-7 -7 -12 -8 -12 -2 0 6 3 14 7
17 3 4 9 5 12 2 2 -3 -1 -11 -7 -17z"/>
<path d="M3226 6325 c-22 -17 -16 -54 12 -72 16 -9 24 -9 41 3 29 21 27 58 -4
72 -31 14 -26 15 -49 -3z"/>
<path d="M2491 6321 c-7 -5 -22 -6 -33 -3 -17 4 -19 0 -16 -38 4 -55 26 -72
65 -48 35 21 51 61 33 82 -14 18 -28 20 -49 7z"/>
<path d="M7667 6243 c-3 -5 -8 -39 -12 -78 -12 -131 -25 -147 -137 -180 -32
-9 -61 -21 -64 -27 -13 -21 29 -38 96 -38 71 0 90 -10 90 -48 0 -34 24 -22 28
14 4 45 -18 67 -66 67 -23 0 -42 1 -42 3 0 2 21 14 46 25 46 22 69 55 58 84
-4 9 -1 15 7 15 8 0 15 -11 15 -26 2 -34 30 -62 76 -76 45 -13 43 -20 -7 -23
-39 -2 -64 -26 -65 -62 0 -13 0 -26 -1 -30 0 -5 -9 -11 -20 -15 -17 -7 -19
-16 -17 -68 2 -65 17 -90 37 -66 12 15 14 19 30 125 12 76 27 90 96 91 95 1
97 37 5 64 -56 17 -92 34 -102 50 -4 6 -8 34 -8 61 0 70 -8 95 -28 88 -14 -4
-13 -2 2 11 10 8 16 22 13 31 -7 16 -23 20 -30 8z"/>
<path d="M2863 6203 c-7 -2 -13 -11 -13 -18 0 -8 -8 -18 -17 -24 -14 -8 -15
-13 -5 -35 6 -14 20 -27 29 -28 33 -2 38 -3 50 -11 24 -15 53 11 53 49 0 27
-5 36 -24 44 -13 5 -27 14 -31 19 -6 11 -21 13 -42 4z"/>
<path d="M3620 6123 c0 -12 4 -44 9 -70 6 -26 13 -75 17 -108 4 -33 9 -54 11
-47 3 6 9 10 14 6 15 -9 14 40 -2 161 -10 68 -14 81 -30 81 -13 0 -19 -7 -19
-23z"/>
<path d="M5243 5800 c-31 -13 -47 -48 -48 -102 l0 -47 64 -7 c59 -6 65 -5 89
19 32 32 34 89 5 119 -22 22 -79 32 -110 18z"/>
<path d="M5160 5625 c-7 -9 -11 -17 -9 -20 3 -2 10 5 17 15 14 24 10 26 -8 5z"/>
<path d="M5361 5371 c-6 -10 -8 -21 -4 -24 3 -4 1 -12 -4 -19 -6 -7 -14 -40
-17 -73 -6 -56 -15 -106 -37 -215 -9 -47 -19 -101 -24 -135 -3 -24 -1 -13 -70
-295 -31 -124 -64 -268 -75 -320 -50 -253 -85 -407 -100 -444 -5 -11 -21 -64
-36 -116 -37 -129 -93 -305 -114 -360 -23 -57 -64 -173 -80 -228 -15 -49 -3
-75 24 -53 20 16 46 75 51 112 2 17 11 39 19 48 9 10 16 27 16 38 0 12 6 24
13 26 10 4 10 6 0 6 -18 1 -16 21 1 21 11 0 19 21 27 68 0 4 7 18 14 32 20 37
45 108 45 126 0 14 -2 15 -17 3 -16 -13 -17 -12 -5 3 8 10 18 16 24 15 5 -1
17 21 25 48 8 28 20 64 27 80 7 17 19 62 26 100 6 39 18 88 25 110 8 22 17 63
21 90 3 28 10 57 15 66 4 9 10 31 13 50 4 32 17 83 52 209 9 30 20 71 24 90 5
19 20 82 34 140 14 58 26 113 26 123 0 9 4 25 9 35 5 9 14 46 20 82 6 36 23
128 37 205 15 77 28 147 29 155 4 30 17 80 21 80 5 0 69 -71 132 -145 83 -100
172 -191 172 -177 0 6 5 12 11 12 8 0 8 -4 -1 -15 -9 -11 -7 -21 13 -47 39
-51 54 -98 46 -143 -23 -136 -54 -241 -89 -305 -5 -8 -34 -64 -64 -125 -41
-81 -52 -111 -43 -118 8 -6 8 -7 -3 -4 -11 3 -27 -15 -53 -64 -20 -38 -37 -76
-37 -84 0 -8 -4 -15 -10 -15 -5 0 -10 -5 -10 -11 0 -6 -9 -22 -20 -36 -11 -14
-20 -33 -20 -42 0 -16 -51 -123 -69 -145 -11 -13 -54 -122 -76 -191 -9 -27
-20 -59 -25 -70 -49 -106 -151 -424 -148 -459 2 -16 8 -31 15 -33 13 -5 53 67
84 154 11 32 27 72 35 90 8 17 11 39 7 49 -4 10 -2 15 4 11 8 -5 108 218 108
242 0 3 4 12 8 19 5 6 5 17 1 24 -4 6 -3 8 3 5 6 -4 22 25 38 71 15 42 36 93
46 112 9 19 20 42 23 50 3 8 32 65 64 125 138 260 166 315 198 395 19 47 39
94 43 105 21 48 51 143 56 177 7 46 9 138 3 158 -21 69 -130 213 -153 203 -11
-4 -13 -1 -9 11 4 10 -7 29 -32 53 -59 60 -167 184 -213 246 -44 60 -72 72
-90 38z m184 -195 c8 -7 11 -16 8 -19 -5 -6 -33 17 -33 27 0 10 11 7 25 -8z
m-465 -1316 c0 -5 -4 -10 -10 -10 -5 0 -10 5 -10 10 0 6 5 10 10 10 6 0 10 -4
10 -10z m-80 -250 c0 -5 -2 -10 -4 -10 -3 0 -8 5 -11 10 -3 6 -1 10 4 10 6 0
11 -4 11 -10z m-50 -170 c0 -5 -2 -10 -4 -10 -3 0 -8 5 -11 10 -3 6 -1 10 4
10 6 0 11 -4 11 -10z"/>
<path d="M4932 5100 c-25 -24 -38 -80 -23 -108 6 -11 25 -27 44 -35 71 -34
147 21 133 97 -11 58 -109 88 -154 46z"/>
<path d="M3186 5085 c-3 -8 -14 -15 -25 -15 -28 0 -34 -28 -11 -60 24 -33 50
-42 81 -26 35 17 46 58 25 90 -18 29 -60 35 -70 11z"/>
<path d="M6253 4931 c-42 -11 -63 -28 -80 -68 -19 -47 -16 -96 8 -127 25 -31
67 -55 94 -53 12 1 20 -4 20 -13 0 -8 4 -21 8 -27 5 -8 4 -13 -2 -13 -6 0 -11
-12 -10 -27 l1 -28 8 25 c6 18 8 20 9 7 1 -10 5 -16 9 -13 5 3 7 20 6 38 -3
40 1 47 43 76 18 13 38 40 48 66 16 41 16 45 -2 81 -31 66 -90 93 -160 76z"/>
<path d="M3971 4883 c-5 -10 -12 -52 -16 -93 -8 -93 -30 -191 -50 -231 -23
-44 -67 -66 -161 -80 -89 -13 -115 -28 -94 -54 9 -11 36 -14 113 -14 108 1
150 -9 165 -38 16 -30 32 -132 35 -231 4 -96 15 -125 40 -104 10 8 18 59 26
164 7 84 18 163 24 176 17 36 71 63 159 78 83 14 121 35 102 54 -5 5 -57 11
-114 13 -58 2 -113 7 -122 11 -38 17 -49 55 -59 189 -5 73 -11 142 -14 155 -6
26 -21 29 -34 5z m17 -278 c5 -64 66 -115 137 -115 41 0 28 -14 -27 -30 -62
-18 -88 -50 -95 -114 -6 -50 -23 -53 -23 -5 0 62 -43 97 -124 101 -51 1 -61
13 -18 23 45 10 95 44 88 61 -3 8 -2 12 4 9 11 -7 40 46 40 75 0 29 15 25 18
-5z m92 -85 c0 -5 -2 -10 -4 -10 -3 0 -8 5 -11 10 -3 6 -1 10 4 10 6 0 11 -4
11 -10z m-70 -370 c0 -5 -4 -10 -10 -10 -5 0 -10 5 -10 10 0 6 5 10 10 10 6 0
10 -4 10 -10z"/>
<path d="M6391 4513 c0 -10 6 -34 14 -53 12 -32 11 -37 -10 -60 -55 -59 -22
-138 59 -144 16 -1 24 -19 46 -112 14 -61 38 -136 53 -166 15 -30 27 -60 27
-66 0 -27 117 -129 185 -162 39 -18 95 -46 126 -61 61 -31 74 -35 64 -19 -3 6
0 10 7 10 7 0 -1 9 -19 20 -41 24 -175 82 -180 76 -2 -2 -29 20 -61 50 -46 43
-59 50 -72 41 -13 -11 -13 -10 -1 6 12 15 12 20 -1 35 -35 41 -98 209 -98 260
0 11 -5 24 -10 27 -6 4 -8 10 -5 15 3 5 1 19 -5 31 -10 17 -8 23 8 35 22 15
35 64 26 100 -7 27 -50 54 -84 54 -13 0 -24 8 -27 20 -3 11 -9 20 -14 20 -5 0
-5 7 -2 17 5 11 3 14 -6 8 -10 -5 -11 -2 -6 14 4 12 2 21 -4 21 -6 0 -11 -8
-10 -17z"/>
<path d="M6269 4458 c7 -10 8 -19 2 -22 -5 -3 -12 0 -14 6 -3 8 -6 6 -6 -4 -1
-10 5 -18 13 -18 24 0 30 21 10 38 -17 16 -17 16 -5 0z"/>
<path d="M6261 4403 c-1 -6 -4 -20 -7 -30 -5 -17 -5 -17 6 0 6 10 9 23 6 30
-3 9 -5 9 -5 0z"/>
<path d="M3121 4321 c-24 -33 -26 -52 -9 -69 19 -19 42 -14 67 12 18 19 21 31
16 55 -9 42 -45 42 -74 2z"/>
<path d="M3357 4226 c-12 -17 -13 -26 -4 -35 17 -17 31 -13 17 4 -15 18 1 20
18 3 8 -8 9 -15 1 -25 -8 -9 -8 -13 0 -13 6 0 11 5 11 10 0 6 6 10 14 10 24 0
25 27 2 49 -29 27 -40 26 -59 -3z"/>
<path d="M6140 4220 c-8 -16 -8 -20 3 -20 8 0 20 6 26 14 9 10 8 15 -4 19 -9
4 -19 -2 -25 -13z"/>
<path d="M6075 4121 c-24 -36 -58 -86 -75 -110 -33 -49 -37 -61 -16 -61 16 0
35 26 104 143 18 30 40 61 47 67 19 16 19 27 -1 27 -8 0 -35 -30 -59 -66z"/>
<path d="M3162 4008 c-17 -17 -15 -42 6 -68 l18 -22 29 25 c28 24 29 25 12 51
-19 28 -45 34 -65 14z"/>
<path d="M5853 3778 c-26 -35 -60 -104 -56 -116 3 -7 -1 -11 -7 -10 -7 2 -14
-2 -17 -9 -2 -6 3 -10 11 -9 16 2 96 125 96 145 0 15 -15 14 -27 -1z"/>
<path d="M6421 3595 c-35 -54 -60 -103 -57 -111 4 -9 0 -14 -9 -12 -19 4 -65
-60 -58 -80 4 -15 3 -15 -6 -2 -8 12 -17 7 -48 -28 -21 -24 -56 -60 -78 -80
-78 -72 -205 -207 -211 -226 -9 -26 12 -44 34 -28 9 7 25 15 35 19 10 3 16 12
13 20 -3 8 0 13 7 11 15 -4 67 36 67 51 0 6 4 10 8 9 10 -3 176 161 235 232
21 25 60 76 87 113 27 37 52 67 57 65 4 -1 19 -27 32 -58 92 -213 208 -440
225 -440 40 0 23 89 -40 210 -18 36 -50 106 -70 155 -20 50 -44 108 -54 130
-10 22 -26 63 -37 90 -15 40 -25 51 -45 53 -22 3 -33 -9 -87 -93z"/>
<path d="M7032 3639 c4 -12 122 -99 134 -99 2 0 4 9 4 19 0 14 -21 30 -71 56
-40 20 -69 31 -67 24z"/>
<path d="M5539 3321 c-50 -50 -35 -143 21 -128 11 3 18 2 15 -3 -6 -9 18 -20
45 -20 11 0 31 10 46 23 20 18 27 33 28 64 2 88 -92 127 -155 64z"/>
<path d="M1348 2733 c-26 -6 -22 -20 7 -27 13 -3 29 -15 35 -26 13 -24 14
-163 5 -384 -7 -160 -9 -171 -31 -193 -13 -13 -24 -27 -24 -31 0 -4 29 -6 64
-4 l63 4 -23 23 c-28 28 -29 56 -17 350 l6 169 32 -65 c17 -36 57 -125 89
-199 95 -223 109 -250 123 -250 15 0 35 42 117 250 32 80 64 160 72 178 8 18
14 39 14 47 0 8 4 15 9 15 11 0 18 -216 11 -375 -5 -115 -6 -120 -27 -123 -69
-10 17 -32 123 -32 58 0 69 10 30 28 -23 10 -24 16 -31 156 -4 80 -4 212 0
292 6 132 9 147 26 151 31 8 22 20 -20 27 -45 7 -97 -1 -109 -18 -5 -6 -20
-47 -33 -91 -35 -122 -134 -365 -149 -365 -7 0 -52 94 -163 339 -41 89 -59
119 -82 132 -32 18 -89 28 -117 22z"/>
<path d="M3446 2718 c-44 -142 -189 -546 -212 -590 -8 -16 -26 -33 -40 -38
-41 -16 -17 -30 51 -30 64 0 93 13 56 25 -32 10 -34 41 -10 111 l23 64 122 0
121 0 27 -72 c31 -86 32 -96 9 -106 -14 -5 -12 -8 12 -13 39 -9 155 -11 155
-3 0 3 -13 18 -28 32 -20 20 -50 87 -111 247 -46 121 -97 256 -115 299 -30 76
-51 103 -60 74z m45 -279 c27 -68 48 -130 49 -136 0 -10 -28 -13 -106 -13
-124 0 -118 -19 -52 162 24 65 47 116 52 115 5 -2 31 -59 57 -128z"/>
<path d="M4603 2723 c-18 -6 -16 -23 2 -23 8 0 19 -9 25 -20 13 -24 12 -534
-1 -567 -5 -14 -17 -23 -29 -23 -11 0 -20 -4 -20 -9 0 -28 252 -25 344 4 107
33 165 91 197 196 16 54 20 88 17 143 -11 173 -118 279 -293 291 -126 9 -230
13 -242 8z m313 -45 c82 -38 124 -132 124 -274 0 -97 -28 -198 -67 -245 -36
-42 -96 -69 -160 -69 -90 0 -83 -25 -83 304 0 161 3 296 7 299 16 16 134 7
179 -15z"/>
<path d="M5506 2718 c-33 -116 -215 -589 -234 -610 -8 -10 -21 -18 -29 -18 -7
0 -13 -4 -13 -9 0 -4 28 -12 61 -15 68 -8 96 4 59 24 -19 10 -22 18 -17 53 3
23 12 59 21 80 l17 38 121 -3 122 -3 23 -60 c29 -74 30 -105 3 -112 -41 -11
-8 -19 84 -22 53 -1 96 1 96 4 0 4 -13 19 -28 33 -21 21 -54 97 -136 317 -107
285 -119 315 -138 315 -5 0 -10 -6 -12 -12z m89 -416 c-10 -11 -196 -15 -205
-5 -4 4 12 60 36 123 72 188 58 185 121 27 30 -77 52 -142 48 -145z"/>
<path d="M8246 2648 c-53 -155 -174 -486 -191 -518 -9 -18 -25 -35 -36 -37
-40 -11 -16 -23 46 -23 37 0 65 4 65 10 0 6 -5 10 -10 10 -24 0 -27 45 -7 106
l20 61 84 7 c46 3 101 3 123 0 37 -6 41 -10 60 -62 33 -86 35 -108 13 -117
-16 -7 -15 -9 7 -15 35 -11 148 -12 154 -1 3 5 -5 16 -17 24 -24 15 -39 52
-158 372 -81 219 -100 265 -113 265 -7 0 -25 -37 -40 -82z m69 -211 c27 -70
45 -130 42 -133 -11 -12 -194 -17 -201 -6 -4 6 4 40 17 74 14 35 37 96 53 136
15 40 31 69 35 65 4 -4 28 -65 54 -136z"/>
<path d="M2238 2713 c-32 -5 -37 -18 -10 -26 29 -7 33 -51 28 -326 -3 -230 -5
-256 -22 -268 -9 -7 -16 -15 -13 -17 5 -5 72 -9 127 -7 43 1 57 15 23 24 -17
4 -19 19 -26 158 -4 85 -5 214 -3 287 3 118 5 135 22 148 11 7 17 16 15 19 -8
7 -111 14 -141 8z"/>
<path d="M2578 2714 c-13 -12 -9 -21 12 -27 19 -5 20 -14 20 -286 0 -268 -1
-282 -20 -301 -11 -11 -20 -22 -20 -24 0 -2 41 -4 90 -5 54 0 90 3 90 9 0 6
-7 10 -15 10 -26 0 -35 37 -35 149 0 109 0 111 23 111 30 0 60 -33 139 -155
36 -55 72 -106 81 -113 22 -18 132 -28 141 -13 4 6 -3 15 -17 20 -27 11 -72
63 -136 161 -24 36 -53 73 -65 82 -21 17 -21 17 -1 23 52 15 112 55 130 86 28
48 28 147 -1 186 -45 60 -111 80 -304 90 -58 2 -108 1 -112 -3z m244 -34 c82
-23 120 -131 79 -224 -16 -37 -29 -51 -63 -66 -45 -20 -77 -24 -116 -14 -22 6
-22 8 -20 153 l3 146 30 6 c45 10 47 10 87 -1z"/>
<path d="M6868 2713 c-24 -6 -23 -19 2 -26 19 -5 20 -14 22 -259 1 -309 1
-309 -22 -329 -18 -15 -16 -17 40 -22 33 -4 73 -4 89 -1 29 6 30 7 11 23 -17
14 -20 30 -21 131 l-1 115 28 -3 c31 -4 35 -8 100 -107 25 -38 60 -91 77 -117
33 -49 53 -58 128 -58 48 0 58 15 22 32 -15 7 -47 42 -72 78 -24 36 -64 90
-88 122 -23 31 -43 58 -43 61 0 3 16 8 35 11 45 9 101 64 116 115 15 50 4 121
-22 156 -12 14 -38 34 -59 45 -53 27 -281 49 -342 33z m272 -46 c38 -26 52
-57 57 -120 8 -112 -42 -169 -149 -171 l-63 -1 -3 60 c-2 33 -1 101 3 152 5
73 10 93 23 97 31 8 111 -2 132 -17z"/>
<path d="M7493 2713 c-28 -5 -30 -19 -4 -26 17 -4 19 -21 25 -193 7 -176 2
-377 -10 -396 -3 -4 -12 -8 -20 -8 -30 0 -12 -18 24 -24 131 -21 297 6 359 59
103 88 66 231 -73 279 l-37 12 30 13 c108 44 129 181 38 242 -57 39 -233 61
-332 42z m250 -48 c14 -9 31 -29 37 -46 15 -36 15 -111 0 -140 -18 -33 -71
-59 -121 -59 l-46 0 -6 50 c-3 27 -3 89 0 136 l6 86 53 -5 c29 -3 63 -13 77
-22z m6 -283 c56 -28 76 -64 76 -137 0 -74 -20 -109 -76 -137 -43 -22 -134
-24 -142 -4 -3 8 -3 78 0 155 l6 141 51 0 c29 0 66 -8 85 -18z"/>
<path d="M3865 2700 c-3 -5 1 -10 9 -10 8 0 24 -11 35 -26 19 -24 20 -40 20
-282 0 -221 -2 -259 -16 -274 -9 -10 -22 -18 -30 -18 -7 0 -13 -4 -13 -10 0
-6 32 -10 75 -10 71 0 99 11 55 23 -11 3 -24 17 -30 32 -13 34 -25 356 -16
418 l7 48 58 -73 c31 -40 97 -129 146 -198 130 -184 185 -250 204 -250 17 0
18 23 24 297 5 285 7 298 26 314 12 10 21 20 21 23 0 3 -31 6 -70 6 -69 0 -93
-12 -46 -24 13 -3 27 -13 30 -22 14 -37 18 -132 11 -278 -6 -139 -9 -155 -22
-144 -17 14 -213 274 -294 392 l-53 76 -62 0 c-35 0 -66 -4 -69 -10z"/>
<path d="M6250 2701 c0 -2 7 -9 16 -15 13 -10 16 -48 20 -246 5 -211 7 -239
26 -278 51 -108 225 -142 326 -65 67 51 76 89 78 347 2 198 4 231 18 241 27
20 18 25 -49 25 -37 0 -65 -4 -65 -10 0 -5 7 -10 15 -10 8 0 22 -12 32 -27 15
-23 18 -54 18 -247 0 -203 -2 -224 -20 -255 -41 -70 -149 -94 -216 -48 -61 41
-64 55 -64 322 l0 239 25 13 c14 7 21 14 15 15 -21 3 -175 3 -175 -1z"/>
<path d="M8660 2704 c0 -3 14 -17 30 -31 l30 -25 0 -248 c0 -258 -5 -294 -41
-303 -11 -3 -19 -10 -19 -15 0 -10 138 -6 149 4 2 2 -7 8 -21 13 -14 5 -29 18
-33 28 -11 27 -18 414 -8 441 10 25 12 23 262 -320 67 -92 127 -170 133 -174
27 -17 37 28 37 165 -1 190 10 410 22 432 5 11 14 19 19 19 6 0 10 5 10 10 0
6 -30 10 -70 10 -69 0 -93 -12 -46 -24 14 -3 28 -16 32 -29 8 -25 7 -407 -1
-416 -9 -8 -40 28 -135 159 -50 69 -121 167 -157 218 l-67 92 -63 0 c-35 0
-63 -3 -63 -6z"/>
<path d="M6037 1773 c-1 0 -81 -4 -177 -9 -152 -6 -415 -7 -790 -2 -58 0 -168
-2 -245 -6 -77 -3 -205 -8 -285 -11 -80 -3 -176 -7 -215 -10 -38 -3 -144 -7
-235 -10 -179 -5 -230 -11 -230 -26 0 -27 60 -33 300 -31 135 1 259 3 275 4
17 1 46 1 65 0 163 -6 411 -2 405 7 -3 6 -2 11 4 11 5 0 11 -5 13 -11 2 -6 65
-12 173 -14 94 -1 191 -6 216 -10 29 -4 55 -3 67 4 13 7 23 7 27 1 3 -5 18 -9
33 -9 15 0 46 -2 69 -5 23 -3 45 -2 48 4 3 6 15 6 29 0 24 -9 98 -10 386 -9
169 1 196 2 206 11 3 4 16 3 28 -1 31 -10 179 -1 192 12 4 3 18 4 33 1 47 -10
182 13 203 33 32 33 14 55 -60 71 -23 5 -530 10 -535 5z m332 -67 c-9 -8 -10
-7 -5 7 3 10 7 24 7 30 1 7 3 4 6 -7 3 -10 -1 -23 -8 -30z"/>
</g>
</svg>
